<svg width="21" height="16" viewBox="0 0 21 16" fill="none" xmlns="http://www.w3.org/2000/svg">
<g clip-path="url(#clip0_203_993)">
<path fill-rule="evenodd" clip-rule="evenodd" d="M0 0.5H21V15.5H0V0.5Z" fill="url(#paint0_linear_203_993)"/>
<path fill-rule="evenodd" clip-rule="evenodd" d="M0 0.5H21V1.5H0V0.5ZM0 2.5H21V3.5H0V2.5ZM0 4.5H21V5.5H0V4.5ZM0 6.5H21V7.5H0V6.5ZM0 8.5H21V9.5H0V8.5ZM0 10.5H21V11.5H0V10.5ZM0 12.5H21V13.5H0V12.5ZM0 14.5H21V15.5H0V14.5Z" fill="url(#paint1_linear_203_993)"/>
<path fill-rule="evenodd" clip-rule="evenodd" d="M0 0.5H9V7.5H0V0.5Z" fill="url(#paint2_linear_203_993)"/>
<path fill-rule="evenodd" clip-rule="evenodd" d="M1.5 2.5C1.36739 2.5 1.24021 2.44732 1.14645 2.35355C1.05268 2.25979 1 2.13261 1 2C1 1.86739 1.05268 1.74021 1.14645 1.64645C1.24021 1.55268 1.36739 1.5 1.5 1.5C1.63261 1.5 1.75979 1.55268 1.85355 1.64645C1.94732 1.74021 2 1.86739 2 2C2 2.13261 1.94732 2.25979 1.85355 2.35355C1.75979 2.44732 1.63261 2.5 1.5 2.5ZM3.5 2.5C3.36739 2.5 3.24021 2.44732 3.14645 2.35355C3.05268 2.25979 3 2.13261 3 2C3 1.86739 3.05268 1.74021 3.14645 1.64645C3.24021 1.55268 3.36739 1.5 3.5 1.5C3.63261 1.5 3.75979 1.55268 3.85355 1.64645C3.94732 1.74021 4 1.86739 4 2C4 2.13261 3.94732 2.25979 3.85355 2.35355C3.75979 2.44732 3.63261 2.5 3.5 2.5ZM5.5 2.5C5.36739 2.5 5.24021 2.44732 5.14645 2.35355C5.05268 2.25979 5 2.13261 5 2C5 1.86739 5.05268 1.74021 5.14645 1.64645C5.24021 1.55268 5.36739 1.5 5.5 1.5C5.63261 1.5 5.75979 1.55268 5.85355 1.64645C5.94732 1.74021 6 1.86739 6 2C6 2.13261 5.94732 2.25979 5.85355 2.35355C5.75979 2.44732 5.63261 2.5 5.5 2.5ZM7.5 2.5C7.36739 2.5 7.24021 2.44732 7.14645 2.35355C7.05268 2.25979 7 2.13261 7 2C7 1.86739 7.05268 1.74021 7.14645 1.64645C7.24021 1.55268 7.36739 1.5 7.5 1.5C7.63261 1.5 7.75979 1.55268 7.85355 1.64645C7.94732 1.74021 8 1.86739 8 2C8 2.13261 7.94732 2.25979 7.85355 2.35355C7.75979 2.44732 7.63261 2.5 7.5 2.5ZM2.5 3.5C2.36739 3.5 2.24021 3.44732 2.14645 3.35355C2.05268 3.25979 2 3.13261 2 3C2 2.86739 2.05268 2.74021 2.14645 2.64645C2.24021 2.55268 2.36739 2.5 2.5 2.5C2.63261 2.5 2.75979 2.55268 2.85355 2.64645C2.94732 2.74021 3 2.86739 3 3C3 3.13261 2.94732 3.25979 2.85355 3.35355C2.75979 3.44732 2.63261 3.5 2.5 3.5ZM4.5 3.5C4.36739 3.5 4.24021 3.44732 4.14645 3.35355C4.05268 3.25979 4 3.13261 4 3C4 2.86739 4.05268 2.74021 4.14645 2.64645C4.24021 2.55268 4.36739 2.5 4.5 2.5C4.63261 2.5 4.75979 2.55268 4.85355 2.64645C4.94732 2.74021 5 2.86739 5 3C5 3.13261 4.94732 3.25979 4.85355 3.35355C4.75979 3.44732 4.63261 3.5 4.5 3.5ZM6.5 3.5C6.36739 3.5 6.24021 3.44732 6.14645 3.35355C6.05268 3.25979 6 3.13261 6 3C6 2.86739 6.05268 2.74021 6.14645 2.64645C6.24021 2.55268 6.36739 2.5 6.5 2.5C6.63261 2.5 6.75979 2.55268 6.85355 2.64645C6.94732 2.74021 7 2.86739 7 3C7 3.13261 6.94732 3.25979 6.85355 3.35355C6.75979 3.44732 6.63261 3.5 6.5 3.5ZM7.5 4.5C7.36739 4.5 7.24021 4.44732 7.14645 4.35355C7.05268 4.25979 7 4.13261 7 4C7 3.86739 7.05268 3.74021 7.14645 3.64645C7.24021 3.55268 7.36739 3.5 7.5 3.5C7.63261 3.5 7.75979 3.55268 7.85355 3.64645C7.94732 3.74021 8 3.86739 8 4C8 4.13261 7.94732 4.25979 7.85355 4.35355C7.75979 4.44732 7.63261 4.5 7.5 4.5ZM5.5 4.5C5.36739 4.5 5.24021 4.44732 5.14645 4.35355C5.05268 4.25979 5 4.13261 5 4C5 3.86739 5.05268 3.74021 5.14645 3.64645C5.24021 3.55268 5.36739 3.5 5.5 3.5C5.63261 3.5 5.75979 3.55268 5.85355 3.64645C5.94732 3.74021 6 3.86739 6 4C6 4.13261 5.94732 4.25979 5.85355 4.35355C5.75979 4.44732 5.63261 4.5 5.5 4.5ZM3.5 4.5C3.36739 4.5 3.24021 4.44732 3.14645 4.35355C3.05268 4.25979 3 4.13261 3 4C3 3.86739 3.05268 3.74021 3.14645 3.64645C3.24021 3.55268 3.36739 3.5 3.5 3.5C3.63261 3.5 3.75979 3.55268 3.85355 3.64645C3.94732 3.74021 4 3.86739 4 4C4 4.13261 3.94732 4.25979 3.85355 4.35355C3.75979 4.44732 3.63261 4.5 3.5 4.5ZM1.5 4.5C1.36739 4.5 1.24021 4.44732 1.14645 4.35355C1.05268 4.25979 1 4.13261 1 4C1 3.86739 1.05268 3.74021 1.14645 3.64645C1.24021 3.55268 1.36739 3.5 1.5 3.5C1.63261 3.5 1.75979 3.55268 1.85355 3.64645C1.94732 3.74021 2 3.86739 2 4C2 4.13261 1.94732 4.25979 1.85355 4.35355C1.75979 4.44732 1.63261 4.5 1.5 4.5ZM2.5 5.5C2.36739 5.5 2.24021 5.44732 2.14645 5.35355C2.05268 5.25979 2 5.13261 2 5C2 4.86739 2.05268 4.74021 2.14645 4.64645C2.24021 4.55268 2.36739 4.5 2.5 4.5C2.63261 4.5 2.75979 4.55268 2.85355 4.64645C2.94732 4.74021 3 4.86739 3 5C3 5.13261 2.94732 5.25979 2.85355 5.35355C2.75979 5.44732 2.63261 5.5 2.5 5.5ZM4.5 5.5C4.36739 5.5 4.24021 5.44732 4.14645 5.35355C4.05268 5.25979 4 5.13261 4 5C4 4.86739 4.05268 4.74021 4.14645 4.64645C4.24021 4.55268 4.36739 4.5 4.5 4.5C4.63261 4.5 4.75979 4.55268 4.85355 4.64645C4.94732 4.74021 5 4.86739 5 5C5 5.13261 4.94732 5.25979 4.85355 5.35355C4.75979 5.44732 4.63261 5.5 4.5 5.5ZM6.5 5.5C6.36739 5.5 6.24021 5.44732 6.14645 5.35355C6.05268 5.25979 6 5.13261 6 5C6 4.86739 6.05268 4.74021 6.14645 4.64645C6.24021 4.55268 6.36739 4.5 6.5 4.5C6.63261 4.5 6.75979 4.55268 6.85355 4.64645C6.94732 4.74021 7 4.86739 7 5C7 5.13261 6.94732 5.25979 6.85355 5.35355C6.75979 5.44732 6.63261 5.5 6.5 5.5ZM7.5 6.5C7.36739 6.5 7.24021 6.44732 7.14645 6.35355C7.05268 6.25979 7 6.13261 7 6C7 5.86739 7.05268 5.74021 7.14645 5.64645C7.24021 5.55268 7.36739 5.5 7.5 5.5C7.63261 5.5 7.75979 5.55268 7.85355 5.64645C7.94732 5.74021 8 5.86739 8 6C8 6.13261 7.94732 6.25979 7.85355 6.35355C7.75979 6.44732 7.63261 6.5 7.5 6.5ZM5.5 6.5C5.36739 6.5 5.24021 6.44732 5.14645 6.35355C5.05268 6.25979 5 6.13261 5 6C5 5.86739 5.05268 5.74021 5.14645 5.64645C5.24021 5.55268 5.36739 5.5 5.5 5.5C5.63261 5.5 5.75979 5.55268 5.85355 5.64645C5.94732 5.74021 6 5.86739 6 6C6 6.13261 5.94732 6.25979 5.85355 6.35355C5.75979 6.44732 5.63261 6.5 5.5 6.5ZM3.5 6.5C3.36739 6.5 3.24021 6.44732 3.14645 6.35355C3.05268 6.25979 3 6.13261 3 6C3 5.86739 3.05268 5.74021 3.14645 5.64645C3.24021 5.55268 3.36739 5.5 3.5 5.5C3.63261 5.5 3.75979 5.55268 3.85355 5.64645C3.94732 5.74021 4 5.86739 4 6C4 6.13261 3.94732 6.25979 3.85355 6.35355C3.75979 6.44732 3.63261 6.5 3.5 6.5ZM1.5 6.5C1.36739 6.5 1.24021 6.44732 1.14645 6.35355C1.05268 6.25979 1 6.13261 1 6C1 5.86739 1.05268 5.74021 1.14645 5.64645C1.24021 5.55268 1.36739 5.5 1.5 5.5C1.63261 5.5 1.75979 5.55268 1.85355 5.64645C1.94732 5.74021 2 5.86739 2 6C2 6.13261 1.94732 6.25979 1.85355 6.35355C1.75979 6.44732 1.63261 6.5 1.5 6.5Z" fill="url(#paint3_linear_203_993)"/>
</g>
<defs>
<linearGradient id="paint0_linear_203_993" x1="1050" y1="0.5" x2="1050" y2="1500.5" gradientUnits="userSpaceOnUse">
<stop stop-color="white"/>
<stop offset="1" stop-color="#F0F0F0"/>
</linearGradient>
<linearGradient id="paint1_linear_203_993" x1="1050" y1="0.5" x2="1050" y2="1500.5" gradientUnits="userSpaceOnUse">
<stop stop-color="#D02F44"/>
<stop offset="1" stop-color="#B12537"/>
</linearGradient>
<linearGradient id="paint2_linear_203_993" x1="450" y1="0.5" x2="450" y2="700.5" gradientUnits="userSpaceOnUse">
<stop stop-color="#46467F"/>
<stop offset="1" stop-color="#3C3C6D"/>
</linearGradient>
<linearGradient id="paint3_linear_203_993" x1="351" y1="1.5" x2="351" y2="501.5" gradientUnits="userSpaceOnUse">
<stop stop-color="white"/>
<stop offset="1" stop-color="#F0F0F0"/>
</linearGradient>
<clipPath id="clip0_203_993">
<rect width="21" height="15" fill="white" transform="translate(0 0.5)"/>
</clipPath>
</defs>
</svg>
